<svg height="512pt" viewBox="0 0 512 512" width="512pt" xmlns="http://www.w3.org/2000/svg"><path fill="#5A5A5A" d="m167.636719 126.398438h-25.167969v130.667968h25.167969c36.023437 0 65.332031-29.308594 65.332031-65.335937 0-36.023438-29.308594-65.332031-65.332031-65.332031zm0 0"/><path fill="#5A5A5A" d="m456.835938 0h-401.667969c-30.421875 0-55.167969 24.746094-55.167969 55.164062v401.671876c0 30.417968 24.746094 55.164062 55.167969 55.164062h401.667969c30.417968 0 55.164062-24.746094 55.164062-55.164062v-401.671876c0-30.417968-24.746094-55.164062-55.164062-55.164062zm-289.199219 287.066406h-25.167969v113.535156c0 8.28125-6.714844 15-15 15s-15-6.71875-15-15v-289.203124c0-8.28125 6.714844-15 15-15h40.167969c52.5625 0 95.332031 42.765624 95.332031 95.332031 0 52.570312-42.769531 95.335937-95.332031 95.335937zm184.761719 128.535156h-42.84375c-8.285157 0-15-6.71875-15-15 0-8.285156 6.714843-15 15-15h42.84375c9.449218 0 17.132812-7.6875 17.132812-17.132812 0-9.449219-7.683594-17.136719-17.132812-17.136719h-21.421876c-25.988281 0-47.132812-21.144531-47.132812-47.132812s21.144531-47.132813 47.132812-47.132813h42.84375c8.285157 0 15 6.714844 15 15s-6.714843 15-15 15h-42.84375c-9.445312 0-17.132812 7.6875-17.132812 17.132813 0 9.445312 7.6875 17.132812 17.132812 17.132812h21.421876c25.992187 0 47.132812 21.144531 47.132812 47.136719 0 25.988281-21.140625 47.132812-47.132812 47.132812zm0 0"/></svg>