<svg width="111"
  height="134"
  viewBox="0 0 111 134"
  fill="none"
  xmlns="http://www.w3.org/2000/svg">
  <path
    d="M55.5623 121.62V130.825M55.5623 130.825L45.4912 130.825L29.5142 106.817L3.52832 86.0438L13.5372 66.3276M55.5623 130.825H65.509L81.486 106.817L107.472 86.0439L97.463 66.3276M13.5372 66.3276L11.5479 2.8252L13.5373 2.88739L45.4912 35.4161M13.5372 66.3276L45.4912 35.4161M13.5372 66.3276L55.5623 91.3927M45.4912 35.4161H55.5623M55.5623 91.3927L65.6794 60.9787M55.5623 91.3927L45.4658 61.0409M55.5623 91.3927L97.463 66.3276M55.5623 35.4161L42.5693 52.3335L45.4658 61.0409M55.5623 35.4161L68.5552 52.3335L65.6794 60.9787M55.5623 35.4161H65.509M65.6794 60.9787L55.5623 47.8553L45.4658 61.0409M65.509 35.4161L97.463 2.82521L99.4523 2.82521L97.463 66.3276M65.509 35.4161L97.463 66.3276M33.2442 77.7717H24.0435L31.6279 84.4267L47.0454 86.4792L34.3633 78.6425M78.129 77.7717H87.3297L79.7453 84.4267L64.3278 86.4792L77.01 78.6425"
    stroke-width="3" stroke="currentColor" />
</svg>
