<svg width="1080" height="1079" viewBox="0 0 1080 1079" fill="none"
  xmlns="http://www.w3.org/2000/svg">
  <rect width="1080" height="1079" rx="100" fill="white" />
  <path
    d="M540.483 1037L462.196 1037L338 850.377L136 688.895L213.804 535.632L198.34 42.0002L213.804 42.4837L462.196 295.343H540.483H617.804L866.196 42.0004L881.66 42.0004L866.196 535.632L944 688.895L742 850.377L617.804 1037H540.483Z"
    fill="none" />
  <path
    d="M540.483 965.445V1037M540.483 1037L462.196 1037L338 850.377L136 688.895L213.804 535.632M540.483 1037H617.804L742 850.377L944 688.895L866.196 535.632M213.804 535.632L198.34 42.0002L213.804 42.4837L462.196 295.343M213.804 535.632L462.196 295.343M213.804 535.632L540.483 730.474M462.196 295.343H540.483M540.483 730.474L619.128 494.053M540.483 730.474L461.999 494.537M540.483 730.474L866.196 535.632M540.483 295.343L439.483 426.85L461.999 494.537M540.483 295.343L641.483 426.85L619.128 494.053M540.483 295.343H617.804M619.128 494.053L540.483 392.039L461.999 494.537M617.804 295.343L866.196 42.0004L881.66 42.0004L866.196 535.632M617.804 295.343L866.196 535.632M366.995 624.592H295.474L354.431 676.325L474.278 692.28L375.694 631.361M715.904 624.593H787.426L728.469 676.325L608.622 692.28L707.206 631.361"
    stroke="#1A1A2E" stroke-width="30" />
</svg>
