<svg width="1080" height="1080" viewBox="0 0 1080 1080" fill="none"
  xmlns="http://www.w3.org/2000/svg">
  <rect y="0.399902" width="1080" height="1079" rx="100" fill="#1A1A2E" />
  <path
    d="M540.483 1037.4L462.196 1037.4L338 850.777L136 689.295L213.804 536.032L198.34 42.4001L213.804 42.8836L462.196 295.743H540.483H617.804L866.196 42.4003L881.66 42.4003L866.196 536.032L944 689.295L742 850.777L617.804 1037.4H540.483Z"
    fill="none" />
  <path
    d="M540.483 965.845V1037.4M540.483 1037.4L462.196 1037.4L338 850.777L136 689.295L213.804 536.032M540.483 1037.4H617.804L742 850.777L944 689.295L866.196 536.032M213.804 536.032L198.34 42.4001L213.804 42.8836L462.196 295.743M213.804 536.032L462.196 295.743M213.804 536.032L540.483 730.874M462.196 295.743H540.483M540.483 730.874L619.128 494.453M540.483 730.874L461.999 494.937M540.483 730.874L866.196 536.032M540.483 295.743L439.483 427.249L461.999 494.937M540.483 295.743L641.483 427.25L619.128 494.453M540.483 295.743H617.804M619.128 494.453L540.483 392.439L461.999 494.937M617.804 295.743L866.196 42.4003L881.66 42.4003L866.196 536.032M617.804 295.743L866.196 536.032M366.995 624.992H295.474L354.431 676.725L474.278 692.679L375.694 631.761M715.904 624.992H787.426L728.469 676.725L608.622 692.679L707.206 631.761"
    stroke="white" stroke-width="30" />
</svg>
