<svg width="35" height="30" viewBox="0 0 35 30" fill="none" xmlns="http://www.w3.org/2000/svg">
    <path d="M33.0833 1.9521C31.6868 2.93717 30.1406 3.6906 28.5042 4.18335C27.6259 3.17347 26.4586 2.4577 25.1603 2.13283C23.8619 1.80796 22.4951 1.88968 21.2447 2.36693C19.9943 2.84418 18.9206 3.69394 18.1689 4.80127C17.4172 5.90861 17.0237 7.22009 17.0417 8.55835V10.0167C14.4788 10.0831 11.9394 9.51475 9.64939 8.36213C7.35942 7.20951 5.39005 5.50845 3.91667 3.41044C3.91667 3.41044 -1.91667 16.5354 11.2083 22.3688C8.20494 24.4075 4.6271 25.4297 1 25.2854C14.125 32.5771 30.1667 25.2854 30.1667 8.5146C30.1653 8.10839 30.1263 7.70318 30.05 7.30419C31.5384 5.83636 32.5887 3.98314 33.0833 1.9521V1.9521Z"
          stroke="white" stroke-width="2" stroke-linecap="round" stroke-linejoin="round"/>
</svg>
