<svg width="35" height="25" viewBox="0 0 35 25" fill="none" xmlns="http://www.w3.org/2000/svg">
<path d="M24.0392 12.5286L33.0094 4.73531V20.233L24.0392 12.5286ZM12.4804 13.8484L15.6304 16.5828C16.1248 17.0028 16.7694 17.2566 17.4738 17.2566H17.4985H17.4971H17.5175C18.2233 17.2566 18.8679 17.0013 19.3681 16.5784L19.3638 16.5813L22.5138 13.847L32.0892 22.0705H2.90938L12.4804 13.8484ZM2.89625 2.8876H32.1067L18.076 15.0734C17.9183 15.1982 17.723 15.266 17.5219 15.2659H17.5015H17.5029H17.4825C17.2807 15.2662 17.0847 15.1978 16.9269 15.072L16.9283 15.0734L2.89625 2.8876ZM1.99063 4.73385L10.9594 12.5272L1.99063 20.2272V4.73385ZM33.4906 1.17406C33.1406 0.999056 32.7294 0.896973 32.2933 0.896973H2.71104C2.28836 0.897074 1.87149 0.995426 1.49333 1.18426L1.50937 1.17697C1.05667 1.40026 0.675424 1.74569 0.408704 2.17425C0.141984 2.6028 0.00041905 3.0974 0 3.60218L0 21.353C0.000772047 22.0714 0.286493 22.7601 0.794471 23.2681C1.30245 23.7761 1.99119 24.0618 2.70958 24.0626H32.289C33.0074 24.0618 33.6961 23.7761 34.2041 23.2681C34.7121 22.7601 34.9978 22.0714 34.9985 21.353V3.60801V3.60218C34.9985 2.54197 34.3875 1.62322 33.4979 1.18135L33.4819 1.17406H33.4906Z" fill="white"/>
</svg>
