<svg width="860" height="1038" viewBox="0 0 860 1038" fill="none" xmlns="http://www.w3.org/2000/svg">
<path d="M430.483 1017L352.196 1017L228 830.377L26 668.895L103.804 515.632L88.3398 22L103.804 22.4835L352.196 275.343H430.483H507.804L756.196 22.0001L771.66 22.0001L756.196 515.632L834 668.895L632 830.377L507.804 1017H430.483Z" fill="white"/>
<path d="M430.483 945.445V1017M430.483 1017L352.196 1017L228 830.377L26 668.895L103.804 515.632M430.483 1017H507.804L632 830.377L834 668.895L756.196 515.632M103.804 515.632L88.3398 22L103.804 22.4835L352.196 275.343M103.804 515.632L352.196 275.343M103.804 515.632L430.483 710.474M352.196 275.343H430.483M430.483 710.474L509.128 474.053M430.483 710.474L351.999 474.536M430.483 710.474L756.196 515.632M430.483 275.343L329.483 406.849L351.999 474.536M430.483 275.343L531.483 406.849L509.128 474.053M430.483 275.343H507.804M509.128 474.053L430.483 372.039L351.999 474.536M507.804 275.343L756.196 22.0001L771.66 22.0001L756.196 515.632M507.804 275.343L756.196 515.632M256.995 604.592H185.474L244.431 656.324L364.278 672.279L265.694 611.361M605.904 604.592H677.426L618.469 656.325L498.622 672.279L597.206 611.361" stroke="#1A1A2E" stroke-width="41"/>
</svg>
