<svg width="35" height="35" viewBox="0 0 35 35" fill="none" xmlns="http://www.w3.org/2000/svg">
    <path d="M1.94444 1H33.0556C33.306 1 33.5463 1.0995 33.7234 1.27662C33.9005 1.45374 34 1.69396 34 1.94444V33.0556C34 33.306 33.9005 33.5463 33.7234 33.7234C33.5463 33.9005 33.306 34 33.0556 34H1.94444C1.69396 34 1.45374 33.9005 1.27662 33.7234C1.0995 33.5463 1 33.306 1 33.0556V1.94444C1 1.69396 1.0995 1.45374 1.27662 1.27662C1.45374 1.0995 1.69396 1 1.94444 1Z"
          stroke="white" stroke-width="2"/>
    <path d="M17 9H18V10.8H17V9ZM17 16.6H18V26H17V16.6Z" stroke="white" stroke-width="2"/>
</svg>
